<mxfile host="app.diagrams.net" modified="2023-07-15T11:35:38.454Z" agent="Mozilla/5.0 (Macintosh; Intel Mac OS X 10_15_7) AppleWebKit/537.36 (KHTML, like Gecko) Chrome/113.0.0.0 Safari/537.36" version="21.5.2" etag="sjBGTqTacxDuWj_GzaW_" type="github">
  <diagram name="第 1 页" id="I2XFA1oWSrMoanQ1U5YX">
    <mxGraphModel>
      <root>
        <mxCell id="0" />
        <mxCell id="1" parent="0" />
      </root>
    </mxGraphModel>
  </diagram>
</mxfile>
